<?xml version="1.0" encoding="iso-8859-1"?>
<!-- Generator: Adobe Illustrator 16.0.0, SVG Export Plug-In . SVG Version: 6.00 Build 0)  -->
<!DOCTYPE svg PUBLIC "-//W3C//DTD SVG 1.1//EN" "http://www.w3.org/Graphics/SVG/1.1/DTD/svg11.dtd">
<svg version="1.1" id="Capa_1" xmlns="http://www.w3.org/2000/svg" xmlns:xlink="http://www.w3.org/1999/xlink" x="0px" y="0px"
	 width="612px" height="612px" viewBox="0 0 612 612" style="enable-background:new 0 0 612 612;" xml:space="preserve">
<g>
	<g id="Cloud_x5F_Sun_x5F_Rain">
		<g>
			<path d="M186.585,417.951c-12.375,0-22.39,10.016-22.39,22.391v104.487c0,12.374,10.016,22.391,22.39,22.391
				s22.39-10.017,22.39-22.391V440.342C208.976,427.967,198.96,417.951,186.585,417.951z M365.707,89.561
				c12.375,0,22.391-10.031,22.391-22.39V22.39c0-12.359-10.016-22.39-22.391-22.39c-12.374,0-22.39,10.031-22.39,22.39v44.781
				C343.317,79.53,353.333,89.561,365.707,89.561z M230.455,142.701c4.061,4.06,9.658,6.568,15.837,6.568
				c12.36,0,22.391-10.031,22.391-22.391c0-6.18-2.508-11.777-6.568-15.837l-29.854-29.854c-4.045-4.045-9.643-6.553-15.822-6.553
				c-12.359,0-22.39,10.031-22.39,22.39c0,6.18,2.508,11.777,6.553,15.837L230.455,142.701z M485.122,149.269
				c6.18,0,11.777-2.508,15.837-6.568l29.854-29.854c4.046-4.045,6.554-9.643,6.554-15.822c0-12.359-10.017-22.39-22.391-22.39
				c-6.18,0-11.777,2.507-15.822,6.553L469.3,111.041c-4.061,4.06-6.568,9.658-6.568,15.837
				C462.731,139.237,472.748,149.269,485.122,149.269z M452.716,338.347c24.479-23.122,39.869-55.737,39.869-92.054
				c0-70.051-56.812-126.878-126.878-126.878c-42.108,0-79.336,20.584-102.413,52.184c-14.822-4.657-30.48-7.403-46.855-7.403
				c-83.307,0-151.239,65.036-156.254,147.089C24.435,329.958,0,367.334,0,410.488c0,61.842,50.109,111.951,111.951,111.951
				c12.375,0,22.39-10.017,22.39-22.391s-10.016-22.391-22.39-22.391c-37.033,0-67.171-30.137-67.171-67.17
				c0-25.062,13.853-47.871,36.153-59.514l22.405-11.718l1.538-25.241c3.612-58.901,52.617-105.04,111.563-105.04
				c34.436,0,66.469,15.613,87.919,42.825l12.897,16.375l20.838,0.672c36.406,1.179,64.932,30.6,64.932,67.006v29.839l27.555,11.494
				c19.524,8.149,32.152,27.077,32.152,48.229c0,28.809-23.435,52.243-52.243,52.243c-12.375,0-22.391,10.017-22.391,22.391
				s10.016,22.391,22.391,22.391c53.587,0,97.023-43.438,97.023-97.024C507.512,387.008,485.077,354.064,452.716,338.347z
				 M436.565,287.207c-17.614-36.347-54.244-61.737-97.024-63.125c-9.853-12.494-21.659-23.331-34.795-32.361
				c15.017-16.792,36.69-27.525,60.961-27.525c45.273,0,82.098,36.824,82.098,82.097
				C447.805,261.234,443.596,275.146,436.565,287.207z M261.22,462.731c-12.375,0-22.391,10.017-22.391,22.391v104.487
				c0,12.375,10.016,22.391,22.391,22.391c12.359,0,22.39-10.016,22.39-22.391V485.122
				C283.61,472.748,273.579,462.731,261.22,462.731z M589.609,223.902h-44.78c-12.359,0-22.39,10.031-22.39,22.39
				c0,12.36,10.03,22.391,22.39,22.391h44.78c12.359,0,22.391-10.031,22.391-22.391C612,233.933,601.969,223.902,589.609,223.902z
				 M335.854,417.951c-12.359,0-22.39,10.016-22.39,22.391v104.487c0,12.374,10.03,22.391,22.39,22.391s22.391-10.017,22.391-22.391
				V440.342C358.244,427.967,348.213,417.951,335.854,417.951z"/>
		</g>
	</g>
</g>
<g>
</g>
<g>
</g>
<g>
</g>
<g>
</g>
<g>
</g>
<g>
</g>
<g>
</g>
<g>
</g>
<g>
</g>
<g>
</g>
<g>
</g>
<g>
</g>
<g>
</g>
<g>
</g>
<g>
</g>
</svg>
